<svg width="38" height="39" viewBox="0 0 38 39" fill="none" xmlns="http://www.w3.org/2000/svg">
<path d="M33.3161 15.8289V34.8448H4.70166V15.8289L19.0089 4.50195L33.3161 15.8289Z" fill="#F4F6F8"/>
<path d="M19.0085 31.8129C17.8352 31.8124 16.6749 31.5585 15.6011 31.0674C14.5273 30.5763 13.5634 29.8587 12.7706 28.96C11.9777 28.0613 11.3733 27.0013 10.9955 25.847C10.6177 24.6928 10.4748 23.4695 10.576 22.2549C10.7679 24.4411 11.7394 26.4738 13.2995 27.9539C14.8597 29.434 16.8959 30.2546 19.0085 30.2546C21.121 30.2546 23.1572 29.434 24.7174 27.9539C26.2775 26.4738 27.249 24.4411 27.4409 22.2549C27.5421 23.4695 27.3992 24.6928 27.0214 25.847C26.6436 27.0013 26.0392 28.0613 25.2463 28.96C24.4535 29.8587 23.4896 30.5763 22.4158 31.0674C21.342 31.5585 20.1817 31.8124 19.0085 31.8129Z" fill="#C7CDD8"/>
<path d="M19.0076 30.2961C23.6841 30.2961 27.4751 26.3565 27.4751 21.4967C27.4751 16.6369 23.6841 12.6973 19.0076 12.6973C14.3311 12.6973 10.54 16.6369 10.54 21.4967C10.54 26.3565 14.3311 30.2961 19.0076 30.2961Z" fill="#7064E5" fill-opacity="0.63"/>
<path d="M19.0085 30.2943C17.8352 30.2938 16.6749 30.0399 15.6011 29.5488C14.5273 29.0577 13.5634 28.3401 12.7706 27.4414C11.9777 26.5428 11.3733 25.4827 10.9955 24.3285C10.6177 23.1742 10.4748 21.951 10.576 20.7363C10.7679 22.9226 11.7394 24.9553 13.2995 26.4354C14.8597 27.9155 16.8959 28.7361 19.0085 28.7361C21.121 28.7361 23.1572 27.9155 24.7174 26.4354C26.2775 24.9553 27.249 22.9226 27.4409 20.7363C27.5421 21.951 27.3992 23.1742 27.0214 24.3285C26.6436 25.4827 26.0392 26.5428 25.2463 27.4414C24.4535 28.3401 23.4896 29.0577 22.4158 29.5488C21.342 30.0399 20.1817 30.2938 19.0085 30.2943Z" fill="#224957"/>
<path d="M19.8857 25.4385H19.3017V18.4597C19.3017 18.3792 19.271 18.302 19.2162 18.2451C19.1614 18.1882 19.0872 18.1562 19.0097 18.1562H18.4258C18.3483 18.1562 18.2741 18.1882 18.2193 18.2451C18.1645 18.302 18.1338 18.3792 18.1338 18.4597C18.1338 18.5402 18.1645 18.6173 18.2193 18.6742C18.2741 18.7311 18.3483 18.7631 18.4258 18.7631H18.7177V25.4385H18.1338C18.0563 25.4385 17.9821 25.4705 17.9273 25.5274C17.8726 25.5843 17.8418 25.6615 17.8418 25.742C17.8418 25.8224 17.8726 25.8996 17.9273 25.9565C17.9821 26.0134 18.0563 26.0454 18.1338 26.0454H19.8857C19.9631 26.0454 20.0374 26.0134 20.0921 25.9565C20.1469 25.8996 20.1777 25.8224 20.1777 25.742C20.1777 25.6615 20.1469 25.5843 20.0921 25.5274C20.0374 25.4705 19.9631 25.4385 19.8857 25.4385Z" fill="#F4F6F8"/>
<path d="M18.8647 17.5485C18.9686 17.5308 19.0631 17.4753 19.1312 17.3919C19.1994 17.3086 19.2368 17.2027 19.2368 17.0933C19.2368 16.9839 19.1994 16.8781 19.1312 16.7947C19.0631 16.7114 18.9686 16.6559 18.8647 16.6382C18.7608 16.6559 18.6664 16.7114 18.5982 16.7947C18.5301 16.8781 18.4927 16.9839 18.4927 17.0933C18.4927 17.2027 18.5301 17.3086 18.5982 17.3919C18.6664 17.4753 18.7608 17.5308 18.8647 17.5485Z" fill="#F4F6F8"/>
<path d="M37.4047 34.8447H0.614746V38.4859H37.4047V34.8447Z" fill="#224957"/>
<path d="M37.4047 37.272H0.614746V38.4857H37.4047V37.272Z" fill="#224957"/>
<path d="M33.3161 33.6309H4.70166V34.8446H33.3161V33.6309Z" fill="#C7CDD8"/>
<path d="M33.3161 15.8289V17.3461C32.2065 16.4661 34.8461 18.5598 19.0089 6.01909L4.70166 17.3582V15.8411L19.0089 4.50195L33.3161 15.8289Z" fill="#C7CDD8"/>
<path d="M37.4047 14.8189V19.0669L19.0097 4.50239L0.614746 19.0669V14.8189L19.0097 0.254395L37.4047 14.8189Z" fill="#224957"/>
<path d="M37.4047 17.8526V19.0663L19.0097 4.5018L0.614746 19.0663V17.8526L19.0097 3.28809L37.4047 17.8526Z" fill="#224957"/>
</svg>
