<svg width="16" height="17" viewBox="0 0 16 17" fill="none" xmlns="http://www.w3.org/2000/svg">
<path d="M7.75 2.72915e-08C8.43613 -9.65827e-05 9.09752 0.256305 9.60429 0.71886C10.1111 1.18142 10.4266 1.81671 10.489 2.5H14.75C14.94 2.50006 15.1229 2.57224 15.2618 2.70197C15.4006 2.8317 15.4851 3.0093 15.498 3.19888C15.511 3.38846 15.4515 3.57589 15.3316 3.7233C15.2117 3.87071 15.0402 3.9671 14.852 3.993L14.75 4H14.167L12.9 14.98C12.8436 15.4674 12.61 15.917 12.2436 16.2434C11.8772 16.5698 11.4037 16.7501 10.913 16.75H4.587C4.09635 16.7501 3.62279 16.5698 3.25642 16.2434C2.89005 15.917 2.65642 15.4674 2.6 14.98L1.332 4H0.75C0.568762 3.99999 0.393658 3.93436 0.257069 3.81523C0.120481 3.69611 0.0316483 3.53155 0.00699997 3.352L0 3.25C7.6429e-06 3.06876 0.0656426 2.89366 0.184767 2.75707C0.303891 2.62048 0.468446 2.53165 0.648 2.507L0.75 2.5H5.011C5.07338 1.81671 5.38893 1.18142 5.89571 0.71886C6.40248 0.256305 7.06387 -9.65827e-05 7.75 2.72915e-08V2.72915e-08ZM6.25 6.25C6.005 6.25 5.8 6.405 5.758 6.609L5.75 6.688V12.813L5.758 12.891C5.8 13.095 6.005 13.25 6.25 13.25C6.495 13.25 6.7 13.095 6.742 12.891L6.75 12.812V6.689L6.742 6.609C6.7 6.406 6.495 6.25 6.25 6.25ZM9.25 6.25C9.005 6.25 8.8 6.405 8.758 6.609L8.75 6.688V12.813L8.758 12.891C8.8 13.095 9.005 13.25 9.25 13.25C9.495 13.25 9.7 13.095 9.742 12.891L9.75 12.812V6.689L9.742 6.609C9.7 6.406 9.495 6.251 9.25 6.251V6.25ZM7.75 1.5C7.145 1.5 6.64 1.93 6.525 2.5H8.975C8.859 1.93 8.355 1.5 7.75 1.5V1.5Z" fill="#C8372D"/>
</svg>
