<svg width="37" height="39" viewBox="0 0 37 39" fill="none" xmlns="http://www.w3.org/2000/svg">
<path d="M35.0061 19.7188L31.66 37.1077C31.5998 37.4227 31.4361 37.7063 31.197 37.9099C30.9579 38.1136 30.6582 38.2246 30.349 38.2241H6.44133C6.1318 38.2247 5.83165 38.1138 5.59204 37.9102C5.35244 37.7066 5.18822 37.423 5.1274 37.1077L1.78418 19.7188H35.0061Z" fill="#7064E5" fill-opacity="0.31"/>
<path d="M18.103 33.3702V24.2692C18.103 24.1887 18.1338 24.1116 18.1885 24.0547C18.2433 23.9978 18.3176 23.9658 18.395 23.9658C18.4725 23.9658 18.5467 23.9978 18.6015 24.0547C18.6562 24.1116 18.687 24.1887 18.687 24.2692V33.3702C18.687 33.4506 18.6562 33.5278 18.6015 33.5847C18.5467 33.6416 18.4725 33.6735 18.395 33.6735C18.3176 33.6735 18.2433 33.6416 18.1885 33.5847C18.1338 33.5278 18.103 33.4506 18.103 33.3702Z" fill="#7064E5" fill-opacity="0.31"/>
<path d="M18.3953 13.9548C22.1043 13.9548 25.111 10.8309 25.111 6.97741C25.111 3.12389 22.1043 0 18.3953 0C14.6864 0 11.6797 3.12389 11.6797 6.97741C11.6797 10.8309 14.6864 13.9548 18.3953 13.9548Z" fill="#E2607F"/>
<path d="M18.395 13.9548C17.4639 13.9546 16.543 13.7534 15.6908 13.3637C14.8386 12.9741 14.0737 12.4046 13.4447 11.6914C12.8157 10.9782 12.3362 10.1369 12.0368 9.22094C11.7374 8.30495 11.6247 7.3343 11.7056 6.37061C11.8539 8.10756 12.6229 9.72385 13.861 10.9011C15.0991 12.0784 16.7166 12.7314 18.395 12.7314C20.0733 12.7314 21.6908 12.0784 22.9289 10.9011C24.1671 9.72385 24.936 8.10756 25.0843 6.37061C25.1653 7.3343 25.0525 8.30495 24.7531 9.22094C24.4537 10.1369 23.9743 10.9782 23.3452 11.6914C22.7162 12.4046 21.9513 12.9741 21.0991 13.3637C20.2469 13.7534 19.326 13.9546 18.395 13.9548Z" fill="#DD4E6A"/>
<path d="M18.8153 6.97732L21.525 4.16209C21.5807 4.10416 21.612 4.02559 21.612 3.94366C21.612 3.86174 21.5807 3.78317 21.525 3.72524C21.4692 3.66731 21.3936 3.63477 21.3147 3.63477C21.2359 3.63477 21.1603 3.66731 21.1045 3.72524L18.3949 6.54047L15.6853 3.72524C15.6295 3.66731 15.5539 3.63477 15.475 3.63477C15.3962 3.63477 15.3206 3.66731 15.2648 3.72524C15.2091 3.78317 15.1777 3.86174 15.1777 3.94366C15.1777 4.02559 15.2091 4.10416 15.2648 4.16209L17.9744 6.97732L15.2648 9.79256C15.2372 9.82124 15.2153 9.85529 15.2004 9.89277C15.1854 9.93025 15.1777 9.97041 15.1777 10.011C15.1777 10.0515 15.1854 10.0917 15.2004 10.1292C15.2153 10.1667 15.2372 10.2007 15.2648 10.2294C15.2924 10.2581 15.3252 10.2808 15.3613 10.2964C15.3973 10.3119 15.436 10.3199 15.475 10.3199C15.5141 10.3199 15.5527 10.3119 15.5888 10.2964C15.6249 10.2808 15.6577 10.2581 15.6853 10.2294L18.3949 7.41417L21.1045 10.2294C21.1321 10.2581 21.1649 10.2808 21.2009 10.2964C21.237 10.3119 21.2757 10.3199 21.3147 10.3199C21.3538 10.3199 21.3924 10.3119 21.4285 10.2964C21.4646 10.2808 21.4973 10.2581 21.525 10.2294C21.5526 10.2007 21.5745 10.1667 21.5894 10.1292C21.6043 10.0917 21.612 10.0515 21.612 10.011C21.612 9.97041 21.6043 9.93025 21.5894 9.89277C21.5745 9.85529 21.5526 9.82124 21.525 9.79256L18.8153 6.97732Z" fill="white"/>
<path d="M25.4028 33.3308L26.5708 24.2299C26.5809 24.1494 26.6213 24.0764 26.6831 24.0269C26.745 23.9774 26.8233 23.9555 26.9007 23.9659C26.9782 23.9764 27.0484 24.0184 27.0961 24.0827C27.1437 24.147 27.1648 24.2283 27.1548 24.3087L25.9868 33.4097C25.9767 33.4902 25.9363 33.5632 25.8745 33.6127C25.8126 33.6622 25.7343 33.6841 25.6569 33.6736C25.5794 33.6632 25.5092 33.6212 25.4615 33.5569C25.4139 33.4926 25.3928 33.4113 25.4028 33.3308Z" fill="#7064E5" fill-opacity="0.31"/>
<path d="M10.8852 33.4097L9.7173 24.3087C9.70723 24.2283 9.72834 24.147 9.77598 24.0827C9.82362 24.0184 9.89389 23.9764 9.97133 23.9659C10.0488 23.9555 10.127 23.9774 10.1889 24.0269C10.2508 24.0764 10.2912 24.1494 10.3013 24.2299L11.4692 33.3308C11.4793 33.4113 11.4582 33.4926 11.4105 33.5569C11.3629 33.6212 11.2926 33.6632 11.2152 33.6736C11.1377 33.6841 11.0595 33.6622 10.9976 33.6127C10.9357 33.5632 10.8953 33.4902 10.8852 33.4097Z" fill="#7064E5" fill-opacity="0.31"/>
<path d="M30.6405 36.707H6.1489C5.84055 36.7078 5.54145 36.5976 5.30245 36.3952C5.06344 36.1928 4.89929 35.9106 4.83789 35.5967L5.12987 37.1135C5.1907 37.4288 5.35491 37.7125 5.59452 37.916C5.83412 38.1196 6.13428 38.2305 6.4438 38.2299H30.3515C30.6606 38.2304 30.9604 38.1194 31.1995 37.9158C31.4386 37.7122 31.6023 37.4286 31.6625 37.1135L31.9545 35.5967C31.8925 35.9109 31.7277 36.1931 31.4882 36.3955C31.2487 36.5979 30.9492 36.7079 30.6405 36.707Z" fill="#7064E5" fill-opacity="0.31"/>
<path d="M36.1214 15.4717H0.668644C0.299362 15.4717 0 15.7827 0 16.1664V19.0241C0 19.4078 0.299362 19.7188 0.668644 19.7188H36.1214C36.4906 19.7188 36.79 19.4078 36.79 19.0241V16.1664C36.79 15.7827 36.4906 15.4717 36.1214 15.4717Z" fill="#224957"/>
<path d="M36.79 17.8105V19.024C36.7892 19.208 36.7185 19.3843 36.5933 19.5144C36.4681 19.6445 36.2985 19.7179 36.1214 19.7187H0.668644C0.491545 19.7179 0.321919 19.6445 0.19669 19.5144C0.0714612 19.3843 0.000768335 19.208 0 19.024V17.8105C0.000768335 17.9945 0.0714612 18.1708 0.19669 18.3009C0.321919 18.431 0.491545 18.5045 0.668644 18.5053H36.1214C36.2985 18.5045 36.4681 18.431 36.5933 18.3009C36.7185 18.1708 36.7892 17.9945 36.79 17.8105Z" fill="#224957"/>
<path d="M10.9086 18.0776C10.7755 18.158 10.6284 18.2102 10.4758 18.2313C10.3232 18.2523 10.168 18.2418 10.0193 18.2004C9.87063 18.1589 9.73128 18.0874 9.6093 17.9898C9.48731 17.8922 9.38511 17.7705 9.30857 17.6317L2.78564 5.59714C2.63076 5.31795 2.58897 4.98627 2.66947 4.67507C2.74996 4.36387 2.94614 4.09864 3.21486 3.93773C3.48357 3.77681 3.8028 3.73339 4.10233 3.81703C4.40185 3.90066 4.65713 4.10449 4.81201 4.38368L11.3379 16.4152C11.4152 16.5535 11.4655 16.7063 11.4857 16.8649C11.506 17.0235 11.4959 17.1846 11.456 17.3391C11.4161 17.4936 11.3472 17.6384 11.2533 17.7652C11.1594 17.8919 11.0422 17.9981 10.9086 18.0776Z" fill="#DDE1E8"/>
<path d="M11.4865 17.1706C11.4591 17.4257 11.3545 17.6652 11.1879 17.8546C11.0212 18.0441 10.801 18.1737 10.559 18.225C10.3169 18.2762 10.0654 18.2464 9.84071 18.1398C9.61598 18.0332 9.42958 17.8553 9.3083 17.6317L2.78537 5.59719C2.63169 5.31902 2.59027 4.98894 2.67015 4.67913C2.75004 4.36931 2.94473 4.10495 3.21167 3.94385C3.19825 4.20382 3.25273 4.46272 3.36934 4.69316L9.89226 16.7216C9.96856 16.8599 10.0703 16.9811 10.1917 17.0785C10.3132 17.1759 10.4518 17.2475 10.5999 17.2892C10.7479 17.3309 10.9024 17.3418 11.0545 17.3215C11.2067 17.3012 11.3534 17.2499 11.4865 17.1706Z" fill="#C7CDD8"/>
<path d="M25.5897 18.0776C25.7228 18.158 25.87 18.2102 26.0226 18.2313C26.1752 18.2523 26.3303 18.2418 26.479 18.2004C26.6277 18.1589 26.7671 18.0874 26.8891 17.9898C27.011 17.8922 27.1132 17.7705 27.1898 17.6317L33.7127 5.59714C33.7894 5.4589 33.8391 5.30632 33.8591 5.14811C33.879 4.9899 33.8687 4.82916 33.8289 4.67507C33.789 4.52098 33.7204 4.37656 33.6268 4.25004C33.5332 4.12353 33.4166 4.0174 33.2835 3.93772C33.1504 3.85805 33.0036 3.80638 32.8513 3.78567C32.699 3.76496 32.5443 3.77561 32.396 3.81702C32.2477 3.85843 32.1087 3.92979 31.9869 4.02701C31.8652 4.12424 31.763 4.24543 31.6863 4.38367L25.1605 16.4152C25.0832 16.5535 25.0329 16.7063 25.0126 16.8649C24.9923 17.0235 25.0024 17.1846 25.0423 17.3391C25.0822 17.4936 25.1511 17.6384 25.2451 17.7652C25.339 17.8919 25.4561 17.9981 25.5897 18.0776Z" fill="#DDE1E8"/>
<path d="M33.7122 5.59732L27.1893 17.6318C27.0822 17.8261 26.9255 17.9857 26.7365 18.0932C26.5476 18.2006 26.3337 18.2517 26.1185 18.2407C25.9033 18.2297 25.6953 18.1571 25.5174 18.0309C25.3394 17.9047 25.1986 17.7299 25.1104 17.5257C25.3748 17.6503 25.6745 17.668 25.9509 17.5755C26.2273 17.4829 26.4606 17.2867 26.6053 17.0251L33.1282 4.99059C33.222 4.8239 33.2754 4.63612 33.2841 4.44328C33.2927 4.25045 33.2563 4.05831 33.1779 3.8833C33.327 3.95269 33.4605 4.05385 33.5697 4.18022C33.6789 4.30659 33.7614 4.45536 33.8117 4.61691C33.8621 4.77847 33.8792 4.94921 33.8621 5.11809C33.845 5.28697 33.7939 5.45023 33.7122 5.59732Z" fill="#C7CDD8"/>
</svg>
