<svg width="37" height="38" viewBox="0 0 37 38" fill="none" xmlns="http://www.w3.org/2000/svg">
<path d="M18.3951 20.845V37.23C17.9425 37.057 17.4228 36.8537 4.37988 31.7683V15.3833L18.3951 20.845Z" fill="#A19AEC"/>
<path d="M36.7898 8.70804L32.41 15.3834L19.7759 10.4588L23.5804 3.5498L36.7898 8.70804Z" fill="#A19AEC"/>
<path d="M17.8402 9.07216C17.8402 9.10553 17.3731 10.2859 17.3585 10.3253L4.37976 15.3834L0 8.70804L13.2123 3.5498L14.8124 4.46008L17.8402 9.07216Z" fill="#A19AEC"/>
<path d="M32.4103 15.3833V31.7683C19.3673 36.8537 18.8476 37.057 18.395 37.23V20.845L32.4103 15.3833Z" fill="#A19AEC"/>
<path d="M17.8113 9.13583L17.3529 10.3253L4.38004 15.3834L3.70264 14.3517C18.9792 8.40457 16.9091 9.08424 17.8113 9.13583Z" fill="#224957"/>
<path d="M33.0874 14.3516L32.41 15.3833L19.7759 10.4587L20.3598 9.39062L33.0874 14.3516Z" fill="#224957"/>
<path d="M32.4104 15.3833L18.3951 20.845L4.37988 15.3833L17.3586 10.3252L19.7762 10.4587L32.4104 15.3833Z" fill="#F4F6F8"/>
<path d="M32.4104 15.3833L18.3951 20.845L4.37988 15.3833L18.3951 19.6313L32.4104 15.3833Z" fill="#F4F6F8"/>
<path d="M19.4237 13.9559H17.0878V12.457C17.0913 11.5668 17.3291 10.6945 17.7753 9.93453C18.2215 9.17457 18.8591 8.55586 19.6193 8.14532C20.0765 7.89437 20.4615 7.52172 20.7347 7.06548C21.0079 6.60923 21.1597 6.08577 21.1744 5.54861C21.1891 5.01145 21.0663 4.47986 20.8185 4.00821C20.5707 3.53655 20.2068 3.14174 19.764 2.86416C19.3212 2.58657 18.8154 2.43617 18.2983 2.42832C17.7813 2.42047 17.2715 2.55547 16.8211 2.8195C16.3707 3.08353 15.9959 3.46712 15.7349 3.93106C15.474 4.39499 15.3363 4.92263 15.3359 5.46H13C13.0003 4.49268 13.2478 3.54279 13.7172 2.70746C14.1866 1.87214 14.8611 1.18135 15.6716 0.70575C16.4822 0.230145 17.3998 -0.0132159 18.3305 0.000553493C19.2613 0.0143229 20.1718 0.284728 20.969 0.784118C21.7662 1.28351 22.4215 1.99396 22.8678 2.84284C23.3142 3.69171 23.5356 4.64854 23.5093 5.61548C23.4831 6.58242 23.2103 7.52478 22.7186 8.34619C22.227 9.1676 21.5343 9.83859 20.7113 10.2905C20.327 10.4953 20.0038 10.8054 19.7769 11.1872C19.5499 11.5691 19.4278 12.0082 19.4237 12.457V13.9559Z" fill="#224957"/>
<path d="M18.395 17.5075C19.04 17.5075 19.5629 16.9641 19.5629 16.2938C19.5629 15.6235 19.04 15.0801 18.395 15.0801C17.75 15.0801 17.2271 15.6235 17.2271 16.2938C17.2271 16.9641 17.75 17.5075 18.395 17.5075Z" fill="#224957"/>
<path d="M18.3951 20.845V23.0023L14.465 28.992L4.37988 25.0626V15.3833L18.3951 20.845Z" fill="#224957"/>
<path d="M18.395 20.845L14.0152 27.5203L0 22.0587L4.37976 15.3833L18.395 20.845Z" fill="#A19AEC"/>
<path d="M32.4103 15.3833V25.0626L22.3251 28.992L18.395 23.0023V20.845L32.4103 15.3833Z" fill="#224957"/>
<path d="M18.395 20.845L22.7748 27.5203L36.79 22.0587L32.4103 15.3833L18.395 20.845Z" fill="#A19AEC"/>
<path d="M18.687 21.7554V37.1178C18.3366 37.2513 18.4709 37.2604 18.103 37.1178V21.7554H18.687Z" fill="#224957"/>
</svg>
