<svg width="297" height="108" viewBox="0 0 297 108" fill="none" xmlns="http://www.w3.org/2000/svg">
<path d="M2.84422 53.8C2.84422 48.856 3.94822 44.44 6.15622 40.552C8.41222 36.616 11.4602 33.568 15.3002 31.408C19.1882 29.2 23.5322 28.096 28.3322 28.096C33.9482 28.096 38.8682 29.536 43.0922 32.416C47.3162 35.296 50.2682 39.28 51.9482 44.368H40.3562C39.2042 41.968 37.5722 40.168 35.4602 38.968C33.3962 37.768 30.9962 37.168 28.2602 37.168C25.3322 37.168 22.7162 37.864 20.4122 39.256C18.1562 40.6 16.3802 42.52 15.0842 45.016C13.8362 47.512 13.2122 50.44 13.2122 53.8C13.2122 57.112 13.8362 60.04 15.0842 62.584C16.3802 65.08 18.1562 67.024 20.4122 68.416C22.7162 69.76 25.3322 70.432 28.2602 70.432C30.9962 70.432 33.3962 69.832 35.4602 68.632C37.5722 67.384 39.2042 65.56 40.3562 63.16H51.9482C50.2682 68.296 47.3162 72.304 43.0922 75.184C38.9162 78.016 33.9962 79.432 28.3322 79.432C23.5322 79.432 19.1882 78.352 15.3002 76.192C11.4602 73.984 8.41222 70.936 6.15622 67.048C3.94822 63.16 2.84422 58.744 2.84422 53.8ZM100.518 28.744L83.5258 61.504V79H73.4458V61.504L56.3818 28.744H67.7578L78.5578 51.712L89.2858 28.744H100.518ZM103.883 53.8C103.883 48.856 104.987 44.44 107.195 40.552C109.451 36.616 112.499 33.568 116.339 31.408C120.227 29.2 124.571 28.096 129.371 28.096C134.987 28.096 139.907 29.536 144.131 32.416C148.355 35.296 151.307 39.28 152.987 44.368H141.395C140.243 41.968 138.611 40.168 136.499 38.968C134.435 37.768 132.035 37.168 129.299 37.168C126.371 37.168 123.755 37.864 121.451 39.256C119.195 40.6 117.419 42.52 116.123 45.016C114.875 47.512 114.251 50.44 114.251 53.8C114.251 57.112 114.875 60.04 116.123 62.584C117.419 65.08 119.195 67.024 121.451 68.416C123.755 69.76 126.371 70.432 129.299 70.432C132.035 70.432 134.435 69.832 136.499 68.632C138.611 67.384 140.243 65.56 141.395 63.16H152.987C151.307 68.296 148.355 72.304 144.131 75.184C139.955 78.016 135.035 79.432 129.371 79.432C124.571 79.432 120.227 78.352 116.339 76.192C112.499 73.984 109.451 70.936 107.195 67.048C104.987 63.16 103.883 58.744 103.883 53.8ZM171.677 71.008H188.237V79H161.597V28.744H171.677V71.008Z" fill="#224957"/>
<path d="M261.995 14.5037C261.505 15.0443 261.618 15.6621 262.751 19.7163C263.468 22.226 263.921 24.4269 263.77 24.6199C263.619 24.7744 256.371 24.8516 247.688 24.813L231.87 24.6971L231.229 22.5735C230.889 21.4152 230.662 20.334 230.738 20.2182C230.851 19.9865 231.682 19.639 237.571 17.4768C239.647 16.7046 240.175 16.0096 239.571 14.8126C239.194 14.1176 238.665 14.079 229.19 14.079C219.488 14.079 219.186 14.1176 218.808 14.8898C218.544 15.3146 218.469 15.9323 218.582 16.2026C218.695 16.5115 220.658 17.7085 222.961 18.9054C227.378 21.1835 227.416 21.2221 228.322 24.7358L228.737 26.3574L224.962 32.458C222.886 35.8559 218.582 42.7287 215.449 47.7868C212.315 52.8835 209.748 57.2852 209.748 57.6327C209.748 59.0613 210.201 59.1386 219.526 59.3702C224.584 59.5247 228.812 59.7177 228.926 59.795C229.19 60.1038 228.284 63.5017 227.34 65.6639C226.849 66.7064 225.415 68.7528 224.094 70.1814C218.62 76.1662 210.73 77.6721 203.368 74.1198C193.44 69.2934 190.156 56.0496 196.686 46.976C198.687 44.2345 200.613 42.6129 203.784 41.107C206.766 39.6784 210.352 39.0992 213.335 39.5239C215.788 39.8714 216.015 39.7942 217.034 38.0567L217.676 36.8984L216.279 36.5122C213.712 35.7786 207.37 35.9717 204.727 36.8984C198.121 39.1764 192.949 44.5048 190.835 51.2232C190.156 53.4627 189.967 54.8141 190.005 57.903C190.08 64.3897 192.081 69.0231 196.762 73.5792C200.952 77.5948 205.294 79.371 211.107 79.4096C216.959 79.4482 221.564 77.5562 225.981 73.2704C229.039 70.3359 231.342 66.1272 232.172 61.9572C232.776 58.7911 233.607 58.4822 235.57 60.6444L236.853 62.073L235.91 65.2006C234.739 69.0231 234.815 68.9073 233.682 68.9073C232.852 68.9073 232.776 69.0617 232.776 70.6448V72.3823H236.363H239.949V70.6448C239.949 69.3706 239.798 68.9073 239.42 68.9073C238.477 68.9073 238.439 68.3281 239.269 65.7411C240.024 63.3858 240.175 63.1542 241.497 62.768C244.139 61.9572 245.8 58.7524 244.932 56.1655C244.517 55.0071 244.668 54.8141 252.671 45.4315C263.657 32.5739 265.355 30.6819 265.695 30.6819C266.035 30.6819 267.922 36.8598 267.658 37.2845C267.583 37.4389 266.526 38.1339 265.318 38.8289C264.147 39.5239 262.033 41.2228 260.674 42.6129C254.634 48.7907 252.784 57.8258 255.955 65.8183C258.409 71.9962 264.449 77.4018 270.678 78.9076C271.697 79.1779 274.114 79.371 276.039 79.371C285.099 79.3324 292.989 73.5792 296.009 64.8144C297.33 60.9919 297.33 54.428 296.009 50.6054C293.215 42.4198 286.081 36.8598 277.247 35.9331C276.039 35.8172 275.057 35.8172 275.057 35.9331C275.057 36.0875 275.246 36.8598 275.51 37.6706C275.888 38.9834 276.114 39.1764 277.285 39.3695C284.457 40.5278 288.987 43.8098 291.932 49.8718C293.366 52.8449 293.366 52.8449 293.366 57.6713C293.366 62.4978 293.366 62.575 291.97 65.5481C290.158 69.4478 287.44 72.1892 283.476 74.197C280.569 75.6643 280.569 75.6643 275.85 75.6643C271.32 75.6643 270.98 75.6257 268.64 74.4673C262.373 71.417 258.598 66.1272 257.843 59.3316C257.352 54.8527 259.428 48.8293 262.6 45.4315C264.525 43.3851 268.073 40.9526 268.715 41.2228C268.979 41.3001 270.112 44.5048 271.244 48.2887C274.302 58.7524 274.529 59.2544 275.85 59.2544C278.115 59.2544 278.342 60.4127 271.056 35.8945C268.111 25.9327 265.733 17.7085 265.771 17.6699C266.11 17.2837 270.754 17.1293 273.774 17.361C276.869 17.5926 277.549 17.7857 278.304 18.5193C279.625 19.8707 279.776 21.1449 278.87 22.9596C277.889 24.9288 277.851 25.8941 278.87 26.4347C280.607 27.3999 282.645 24.6199 282.683 21.2607C282.721 18.5965 281.739 16.5887 279.852 15.3146C278.342 14.272 278.191 14.272 270.452 14.079C263.543 13.9245 262.486 13.9632 261.995 14.5037ZM262.222 28.6355C262.222 29.1375 242.214 52.4974 241.723 52.6132C240.44 52.8835 239.798 51.4163 236.514 40.3348C234.664 34.0797 233.154 28.8286 233.154 28.6355C233.154 28.4811 239.685 28.3652 247.688 28.3652C255.691 28.3652 262.222 28.4811 262.222 28.6355ZM233.682 42.6515L236.891 53.231L235.91 54.3894C234.664 55.9338 233.494 56.0883 222.81 56.1269C215.298 56.1655 214.58 56.1269 214.807 55.5477C215.109 54.7369 221.413 44.582 222.017 43.887C222.395 43.4623 222.81 43.7712 224.358 45.4701C225.377 46.6284 226.698 48.559 227.34 49.756C228.397 51.8796 228.473 51.9182 230.058 51.9182C231.153 51.9182 231.644 51.7638 231.644 51.3777C231.644 50.0649 228.775 45.1998 226.585 42.8059L224.207 40.1417L227.076 35.6242C228.85 32.8055 230.021 31.2997 230.209 31.57C230.323 31.8403 231.908 36.8211 233.682 42.6515ZM241.157 56.4358C241.988 57.208 242.025 58.0188 241.195 58.9455C240.44 59.795 239.647 59.8336 238.741 58.9841C237.91 58.2119 237.873 57.401 238.703 56.4744C239.458 55.6249 240.251 55.5863 241.157 56.4358Z" fill="#224957"/>
<path d="M239.949 41.3065C239.949 42.7737 240.062 43.044 240.704 43.044C241.308 43.044 241.422 43.3143 241.422 44.6656C241.384 45.5923 241.573 46.8279 241.837 47.4843L242.252 48.604L243.158 47.4843C243.649 46.8279 244.366 45.5923 244.706 44.6656C245.197 43.3915 245.536 43.044 246.216 43.044C247.046 43.044 247.122 42.8895 247.122 41.3065V39.569H243.536H239.949V41.3065Z" fill="#224957"/>
</svg>
