<svg width="107" height="66" viewBox="0 0 107 66" fill="none" xmlns="http://www.w3.org/2000/svg">
<path d="M71.9955 0.503716C71.5047 1.04428 71.618 1.66206 72.7505 5.71626C73.4678 8.22601 73.9208 10.4269 73.7698 10.6199C73.6188 10.7744 66.3706 10.8516 57.6879 10.813L41.8703 10.6971L41.2285 8.57351C40.8888 7.41517 40.6623 6.33405 40.7378 6.21821C40.851 5.98655 41.6815 5.63904 47.5707 3.4768C49.647 2.70457 50.1755 2.00956 49.5715 0.812607C49.194 0.117599 48.6655 0.0789948 39.19 0.0789948C29.488 0.0789948 29.186 0.117599 28.8085 0.889832C28.5442 1.31456 28.4687 1.93234 28.582 2.20262C28.6952 2.51151 30.6583 3.70847 32.9611 4.90542C37.3779 7.1835 37.4157 7.22211 38.3217 10.7358L38.737 12.3574L34.9619 18.458C32.8856 21.8559 28.582 28.7287 25.4487 33.7868C22.3153 38.8835 19.7483 43.2852 19.7483 43.6327C19.7483 45.0613 20.2013 45.1386 29.5258 45.3702C34.5844 45.5247 38.8125 45.7177 38.9257 45.795C39.19 46.1038 38.284 49.5017 37.3402 51.6639C36.8494 52.7064 35.4149 54.7528 34.0936 56.1814C28.6197 62.1662 20.7298 63.6721 13.3684 60.1198C3.43991 55.2934 0.15558 42.0496 6.68648 32.976C8.68728 30.2345 10.6126 28.6129 13.7836 27.107C16.766 25.6784 20.3523 25.0992 23.3346 25.5239C25.7884 25.8714 26.0149 25.7942 27.0342 24.0567L27.676 22.8984L26.2792 22.5122C23.7121 21.7786 17.37 21.9717 14.7274 22.8984C8.12101 25.1764 2.94914 30.5048 0.835095 37.2232C0.15558 39.4627 -0.0331748 40.8141 0.00457611 43.903C0.0800779 50.3897 2.08087 55.0231 6.76198 59.5792C10.9523 63.5948 15.2937 65.371 21.1073 65.4096C26.9587 65.4482 31.5643 63.5562 35.9812 59.2704C39.039 56.3359 41.3418 52.1272 42.1723 47.9572C42.7763 44.7911 43.6068 44.4822 45.5699 46.6444L46.8534 48.073L45.9096 51.2006C44.7394 55.0231 44.8149 54.9073 43.6823 54.9073C42.8518 54.9073 42.7763 55.0617 42.7763 56.6448V58.3823H46.3627H49.949V56.6448C49.949 55.3706 49.798 54.9073 49.4205 54.9073C48.4767 54.9073 48.439 54.3281 49.2695 51.7411C50.0245 49.3858 50.1755 49.1542 51.4968 48.768C54.1393 47.9572 55.8004 44.7524 54.9321 42.1655C54.5168 41.0071 54.6678 40.8141 62.671 31.4315C73.6565 18.5739 75.3553 16.6819 75.6951 16.6819C76.0348 16.6819 77.9224 22.8598 77.6581 23.2845C77.5826 23.4389 76.5256 24.1339 75.3176 24.8289C74.1473 25.5239 72.0332 27.2228 70.6742 28.6129C64.6341 34.7907 62.7843 43.8258 65.9554 51.8183C68.4092 57.9962 74.4493 63.4018 80.6782 64.9076C81.6975 65.1779 84.1135 65.371 86.0388 65.371C95.099 65.3324 102.989 59.5792 106.009 50.8144C107.33 46.9919 107.33 40.428 106.009 36.6054C103.215 28.4198 96.0806 22.8598 87.2469 21.9331C86.0388 21.8172 85.0573 21.8172 85.0573 21.9331C85.0573 22.0875 85.2461 22.8598 85.5103 23.6706C85.8878 24.9834 86.1143 25.1764 87.2846 25.3695C94.4573 26.5278 98.9874 29.8098 101.932 35.8718C103.366 38.8449 103.366 38.8449 103.366 43.6713C103.366 48.4978 103.366 48.575 101.97 51.5481C100.158 55.4478 97.4396 58.1892 93.4758 60.197C90.5689 61.6643 90.5689 61.6643 85.8501 61.6643C81.32 61.6643 80.9802 61.6257 78.6397 60.4673C72.373 57.417 68.5979 52.1272 67.8429 45.3316C67.3521 40.8527 69.4284 34.8293 72.5995 31.4315C74.5248 29.3851 78.0734 26.9526 78.7152 27.2228C78.9794 27.3001 80.1119 30.5048 81.2445 34.2887C84.3023 44.7524 84.5288 45.2544 85.8501 45.2544C88.1151 45.2544 88.3416 46.4127 81.0557 21.8945C78.1111 11.9327 75.7328 3.70847 75.7706 3.66986C76.1103 3.28374 80.7537 3.1293 83.7738 3.36097C86.8693 3.59264 87.5489 3.78569 88.3039 4.51931C89.6252 5.87071 89.7762 7.14489 88.8701 8.95963C87.8886 10.9288 87.8509 11.8941 88.8701 12.4347C90.6067 13.3999 92.6452 10.6199 92.683 7.26072C92.7207 4.59653 91.7392 2.58874 89.8517 1.31456C88.3416 0.272049 88.1906 0.272049 80.4517 0.0789948C73.5433 -0.0754547 72.4863 -0.0368423 71.9955 0.503716ZM72.222 14.6355C72.222 15.1375 52.214 38.4974 51.7233 38.6132C50.4397 38.8835 49.798 37.4163 46.5137 26.3348C44.6639 20.0797 43.1538 14.8286 43.1538 14.6355C43.1538 14.4811 49.6847 14.3652 57.6879 14.3652C65.6911 14.3652 72.222 14.4811 72.222 14.6355ZM43.6823 28.6515L46.8912 39.231L45.9096 40.3894C44.6639 41.9338 43.4936 42.0883 32.8101 42.1269C25.2977 42.1655 24.5804 42.1269 24.8069 41.5477C25.1089 40.7369 31.4133 30.582 32.0173 29.887C32.3948 29.4623 32.8101 29.7712 34.3579 31.4701C35.3771 32.6284 36.6984 34.559 37.3402 35.756C38.3972 37.8796 38.4727 37.9182 40.0583 37.9182C41.153 37.9182 41.6438 37.7638 41.6438 37.3777C41.6438 36.0649 38.7747 31.1998 36.5852 28.8059L34.2069 26.1417L37.0759 21.6242C38.8502 18.8055 40.0205 17.2997 40.2093 17.57C40.3225 17.8403 41.9081 22.8211 43.6823 28.6515ZM51.157 42.4358C51.9875 43.208 52.0253 44.0188 51.1948 44.9455C50.4397 45.795 49.647 45.8336 48.741 44.9841C47.9104 44.2119 47.8727 43.401 48.7032 42.4744C49.4582 41.6249 50.251 41.5863 51.157 42.4358Z" fill="#224957"/>
<path d="M49.9492 27.3065C49.9492 28.7737 50.0625 29.044 50.7042 29.044C51.3083 29.044 51.4215 29.3143 51.4215 30.6656C51.3838 31.5923 51.5725 32.8279 51.8368 33.4843L52.252 34.604L53.158 33.4843C53.6488 32.8279 54.3661 31.5923 54.7058 30.6656C55.1966 29.3915 55.5363 29.044 56.2159 29.044C57.0464 29.044 57.1219 28.8895 57.1219 27.3065V25.569H53.5356H49.9492V27.3065Z" fill="#224957"/>
</svg>
