<svg width="109" height="22" viewBox="0 0 109 22" fill="none" xmlns="http://www.w3.org/2000/svg">
<path d="M8.00016 14.3107L11.4201 16.3359L10.5125 12.5189L13.534 9.95062L9.55518 9.61398L8.00016 6.01953L6.44515 9.61398L2.46631 9.95062L5.48226 12.5189L4.58024 16.3359L8.00016 14.3107Z" fill="#FB8200"/>
<path d="M22.0002 14.3107L25.4201 16.3359L24.5125 12.5189L27.534 9.95062L23.5552 9.61398L22.0002 6.01953L20.4451 9.61398L16.4663 9.95062L19.4823 12.5189L18.5802 16.3359L22.0002 14.3107Z" fill="#FB8200"/>
<path d="M36.0002 14.3107L39.4201 16.3359L38.5125 12.5189L41.534 9.95062L37.5552 9.61398L36.0002 6.01953L34.4451 9.61398L30.4663 9.95062L33.4823 12.5189L32.5802 16.3359L36.0002 14.3107Z" fill="#FB8200"/>
<path d="M50.0002 14.3107L53.4201 16.3359L52.5125 12.5189L55.534 9.95062L51.5552 9.61398L50.0002 6.01953L48.4451 9.61398L44.4663 9.95062L47.4823 12.5189L46.5802 16.3359L50.0002 14.3107Z" fill="#FB8200"/>
<path d="M64.0002 13.272V7.8546L64.9465 10.2021L67.3703 10.4177L65.533 12.1011L66.0809 14.5943L64.0002 13.272ZM69.534 9.68369L65.5552 9.32836L64.0002 5.46631L62.4451 9.32836L58.4663 9.68369L61.4823 12.439L60.5802 16.534L64.0002 14.3613L67.4201 16.534L66.5125 12.439L69.534 9.68369Z" fill="#FB8200"/>
<path d="M86.3643 12.4521H87.6016V13.7852H86.3643V16H84.7031V13.7852H80.4033L80.3555 12.7734L84.6484 6.04688H86.3643V12.4521ZM82.0986 12.4521H84.7031V8.2959L84.5801 8.51465L82.0986 12.4521ZM89.9438 14.25C90.2536 14.25 90.4929 14.3389 90.6615 14.5166C90.8301 14.6898 90.9145 14.9085 90.9145 15.1729C90.9145 15.4326 90.8301 15.6491 90.6615 15.8223C90.4929 15.9909 90.2536 16.0752 89.9438 16.0752C89.6475 16.0752 89.4128 15.9909 89.2396 15.8223C89.0665 15.6536 88.9799 15.4372 88.9799 15.1729C88.9799 14.9085 89.0642 14.6898 89.2328 14.5166C89.4014 14.3389 89.6384 14.25 89.9438 14.25ZM99.2996 11.8096C99.2996 13.2406 99.0307 14.3206 98.493 15.0498C97.9598 15.7744 97.1463 16.1367 96.0525 16.1367C94.977 16.1367 94.1658 15.7835 93.6189 15.0771C93.0766 14.3662 92.7986 13.3158 92.785 11.9258V10.2031C92.785 8.77214 93.0516 7.69889 93.5848 6.9834C94.1225 6.2679 94.9406 5.91016 96.0389 5.91016C97.1281 5.91016 97.9393 6.25879 98.4725 6.95605C99.0102 7.65332 99.2859 8.69694 99.2996 10.0869V11.8096ZM97.6385 9.9502C97.6385 9.01595 97.5109 8.33236 97.2557 7.89941C97.0005 7.46191 96.5949 7.24316 96.0389 7.24316C95.4965 7.24316 95.0978 7.45052 94.8426 7.86523C94.5874 8.27539 94.4529 8.91797 94.4393 9.79297V12.0488C94.4393 12.9785 94.5691 13.6712 94.8289 14.127C95.0887 14.5827 95.4965 14.8105 96.0525 14.8105C96.5857 14.8105 96.9799 14.6009 97.2352 14.1816C97.4904 13.7578 97.6248 13.097 97.6385 12.1992V9.9502ZM101.314 11.0645L101.854 6.04688H107.199V7.48242H103.235L102.961 9.86133C103.421 9.59701 103.941 9.46484 104.52 9.46484C105.468 9.46484 106.204 9.7679 106.728 10.374C107.256 10.9801 107.521 11.7959 107.521 12.8213C107.521 13.833 107.229 14.6396 106.646 15.2412C106.062 15.8382 105.263 16.1367 104.246 16.1367C103.335 16.1367 102.578 15.8792 101.977 15.3643C101.38 14.8447 101.056 14.1611 101.006 13.3135H102.612C102.676 13.7965 102.849 14.168 103.132 14.4277C103.415 14.6829 103.784 14.8105 104.239 14.8105C104.75 14.8105 105.146 14.6283 105.429 14.2637C105.716 13.8991 105.86 13.4023 105.86 12.7734C105.86 12.1673 105.702 11.6888 105.388 11.3379C105.073 10.9824 104.64 10.8047 104.089 10.8047C103.788 10.8047 103.533 10.8457 103.323 10.9277C103.114 11.0052 102.886 11.1602 102.64 11.3926L101.314 11.0645Z" fill="#5E6366"/>
</svg>
