<svg width="34" height="33" viewBox="0 0 34 33" fill="none" xmlns="http://www.w3.org/2000/svg">
<path d="M14.54 28.118C17.766 28.1173 20.8991 27.101 23.4403 25.2307L31.43 32.75L34 30.3314L26.0103 22.812C27.9986 20.4202 29.0792 17.4709 29.08 14.434C29.08 6.88898 22.557 0.75 14.54 0.75C6.52301 0.75 0 6.88898 0 14.434C0 21.979 6.52301 28.118 14.54 28.118ZM14.54 4.171C20.5541 4.171 25.445 8.77395 25.445 14.434C25.445 20.094 20.5541 24.697 14.54 24.697C8.5259 24.697 3.635 20.094 3.635 14.434C3.635 8.77395 8.5259 4.171 14.54 4.171Z" fill="#7064E5"/>
</svg>
