<svg xmlns="http://www.w3.org/2000/svg" width="25.027" height="23.555" viewBox="0 0 25.027 23.555">
  <defs>
    <style>
      .cls-1 {
        fill: #f90;
      }
    </style>
  </defs>
  <path id="Polygon_3" data-name="Polygon 3" class="star-svg" d="M11.606,1.966a1,1,0,0,1,1.816,0l2.548,5.516a1,1,0,0,0,.795.574l6.071.691a1,1,0,0,1,.559,1.734l-4.486,4.077a1,1,0,0,0-.307.94l1.21,5.919a1,1,0,0,1-1.467,1.073L13,19.508a1,1,0,0,0-.975,0L6.684,22.491a1,1,0,0,1-1.467-1.073L6.427,15.5a1,1,0,0,0-.307-.94L1.633,10.481a1,1,0,0,1,.559-1.734l6.071-.691a1,1,0,0,0,.795-.574Z"/>
</svg>
