<svg width="98" height="100" viewBox="0 0 98 100" fill="none" xmlns="http://www.w3.org/2000/svg">
<path d="M48.9998 91.667C42.826 91.6847 36.7302 90.2593 31.1801 87.5002C29.1488 86.492 27.2026 85.3144 25.3613 83.9793L24.8019 83.5627C19.7378 79.7486 15.5976 74.8011 12.6989 69.1002C9.70068 63.1996 8.14563 56.6466 8.16622 50.0002C8.16622 26.9883 26.4481 8.3335 48.9998 8.3335C71.5514 8.3335 89.8333 26.9883 89.8333 50.0002C89.8537 56.6435 88.3001 63.1934 85.3047 69.0918C82.4101 74.7895 78.2756 79.7352 73.218 83.5502C71.3101 84.9752 69.2855 86.2298 67.1665 87.3002L66.8398 87.4668C61.2862 90.2406 55.183 91.6775 48.9998 91.667ZM48.9998 70.8334C42.8808 70.8213 37.271 74.3086 34.4753 79.8627C43.6277 84.4884 54.3718 84.4884 63.5242 79.8627V79.8418C60.725 74.2938 55.115 70.8144 48.9998 70.8334ZM48.9998 62.5002C57.8447 62.5119 66.0004 67.3756 70.3515 75.2335L70.4128 75.1793L70.4699 75.1293L70.4005 75.1918L70.3597 75.2252C80.6864 66.1214 84.3789 51.4266 79.6192 38.3756C74.8595 25.3246 62.6507 16.6681 49.0038 16.6681C35.357 16.6681 23.1481 25.3246 18.3884 38.3756C13.6287 51.4266 17.3213 66.1214 27.648 75.2252C32.0019 67.3711 40.1567 62.5111 48.9998 62.5002ZM48.9998 58.3335C39.9791 58.3335 32.6664 50.8716 32.6664 41.6668C32.6664 32.4621 39.9791 25.0002 48.9998 25.0002C58.0204 25.0002 65.3331 32.4621 65.3331 41.6668C65.3331 46.0871 63.6123 50.3263 60.5492 53.4519C57.4861 56.5775 53.3316 58.3335 48.9998 58.3335ZM48.9998 33.3335C44.4894 33.3335 40.8331 37.0645 40.8331 41.6668C40.8331 46.2692 44.4894 50.0002 48.9998 50.0002C53.5101 50.0002 57.1664 46.2692 57.1664 41.6668C57.1664 37.0645 53.5101 33.3335 48.9998 33.3335Z" fill="#224957"/>
</svg>
