<svg width="1445" height="254" viewBox="0 0 1445 254" fill="none" xmlns="http://www.w3.org/2000/svg">
<path fill-rule="evenodd" clip-rule="evenodd" d="M4.55078 0.766113L63.9924 10.3671C124.559 19.9911 243.442 39.1932 363.213 70.0286C482.971 101.509 601.354 145.222 721.533 156.062C841.712 166.901 961.451 144.177 1081.96 138.891C1202.48 132.96 1321.53 143.777 1382.19 148.886L1441.73 153.972L1439.7 253.305L1380.09 252.089C1319.35 250.851 1200.12 248.419 1079.77 245.965C959.425 243.51 840.2 241.079 719.85 238.625C599.5 236.17 480.274 233.739 359.924 231.284C239.574 228.83 120.349 226.398 59.6119 225.16L-0.000690945 223.944L4.55078 0.766113Z" fill="#7064E5" fill-opacity="0.31"/>
<path fill-rule="evenodd" clip-rule="evenodd" d="M2.73019 90.0373L50.3561 108.87C97.982 127.703 193.234 165.369 289.396 158.399C385.558 151.43 482.63 99.8243 579.339 66.0733C676.047 32.3222 772.391 16.4254 868.371 18.3828C964.351 20.3402 1059.97 40.1518 1155.31 73.3542C1250.65 106.556 1345.72 153.149 1393.26 176.446L1440.79 199.742L1439.7 253.305L1391.71 252.326C1343.72 251.348 1247.74 249.39 1151.76 247.433C1055.78 245.476 959.8 243.518 863.82 241.561C767.84 239.603 671.86 237.646 575.88 235.688C479.9 233.731 383.919 231.774 287.939 229.816C191.959 227.859 95.9794 225.901 47.9893 224.923L-0.000691256 223.944L2.73019 90.0373Z" fill="#824AFA" fill-opacity="0.34"/>
</svg>
