<svg width="14" height="14" viewBox="0 0 14 14" fill="none" xmlns="http://www.w3.org/2000/svg">
<path d="M7.07 11.5852L7 11.6552L6.923 11.5852C3.598 8.5682 1.4 6.5732 1.4 4.5502C1.4 3.1502 2.45 2.1002 3.85 2.1002C4.928 2.1002 5.978 2.8002 6.349 3.7522H7.651C8.022 2.8002 9.072 2.1002 10.15 2.1002C11.55 2.1002 12.6 3.1502 12.6 4.5502C12.6 6.5732 10.402 8.5682 7.07 11.5852ZM10.15 0.700195C8.932 0.700195 7.763 1.2672 7 2.1562C6.237 1.2672 5.068 0.700195 3.85 0.700195C1.694 0.700195 0 2.3872 0 4.5502C0 7.1892 2.38 9.3522 5.985 12.6212L7 13.5452L8.015 12.6212C11.62 9.3522 14 7.1892 14 4.5502C14 2.3872 12.306 0.700195 10.15 0.700195Z" fill="#7064E5"/>
</svg>
